<svg width="23" height="22" viewBox="0 0 23 22" fill="none" xmlns="http://www.w3.org/2000/svg">
<path d="M18.2572 0C19.3934 0 20.365 0.403429 21.1719 1.21029C21.9787 2.01714 22.3822 2.98872 22.3822 4.125V17.875C22.3822 19.0113 21.9787 19.9829 21.1719 20.7897C20.365 21.5966 19.3934 22 18.2572 22H15.5645V13.4779H18.4147L18.8444 10.1549H15.5645V8.03516C15.5645 7.50043 15.6767 7.09939 15.901 6.83203C16.1254 6.56467 16.5623 6.43099 17.2116 6.43099L18.959 6.41667V3.45182C18.3574 3.36589 17.5076 3.32292 16.4095 3.32292C15.1109 3.32292 14.0725 3.70486 13.2943 4.46875C12.5161 5.23264 12.127 6.31163 12.127 7.70573V10.1549H9.26237V13.4779H12.127V22H4.50716C3.37088 22 2.39931 21.5966 1.59245 20.7897C0.785593 19.9829 0.382164 19.0113 0.382164 17.875V4.125C0.382164 2.98872 0.785593 2.01714 1.59245 1.21029C2.39931 0.403429 3.37088 0 4.50716 0H18.2572Z" fill="white"/>
</svg>
