<svg width="22" height="17" viewBox="0 0 22 17" fill="none" xmlns="http://www.w3.org/2000/svg">
<path d="M11.0701 0.748535H11.1925C12.3228 0.75266 18.0496 0.79391 19.5938 1.20916C20.0606 1.33589 20.4859 1.58292 20.8273 1.92555C21.1688 2.26818 21.4143 2.69441 21.5394 3.16166C21.6782 3.68416 21.7759 4.37579 21.8419 5.08941L21.8556 5.23241L21.8859 5.58991L21.8969 5.73291C21.9862 6.98966 21.9972 8.16666 21.9986 8.42378V8.52691C21.9972 8.79366 21.9849 10.0504 21.8859 11.3594L21.8749 11.5038L21.8625 11.6468C21.7937 12.4333 21.692 13.2143 21.5394 13.789C21.4147 14.2565 21.1693 14.6829 20.8278 15.0256C20.4863 15.3683 20.0607 15.6152 19.5938 15.7415C17.9988 16.1705 11.9364 16.2008 11.0962 16.2022H10.901C10.4761 16.2022 8.71887 16.1939 6.87637 16.1307L6.64262 16.1224L6.523 16.1169L6.28788 16.1073L6.05275 16.0977C4.5265 16.0303 3.07313 15.9217 2.4035 15.7402C1.93667 15.6139 1.51121 15.3672 1.16975 15.0248C0.828277 14.6824 0.582789 14.2562 0.457875 13.789C0.30525 13.2157 0.2035 12.4333 0.13475 11.6468L0.12375 11.5024L0.11275 11.3594C0.0448904 10.4277 0.00728732 9.49405 0 8.55991L0 8.39079C0.00275 8.09516 0.01375 7.07353 0.088 5.94603L0.097625 5.80441L0.10175 5.73291L0.11275 5.58991L0.143 5.23241L0.15675 5.08941C0.22275 4.37579 0.320375 3.68279 0.45925 3.16166C0.583954 2.69423 0.829348 2.26779 1.17083 1.9251C1.51231 1.58241 1.93788 1.33551 2.40488 1.20916C3.0745 1.03041 4.52787 0.92041 6.05412 0.85166L6.28788 0.842035L6.52437 0.833785L6.64262 0.82966L6.87775 0.820035C8.18635 0.777925 9.49548 0.754548 10.8047 0.74991H11.0701V0.748535ZM8.8 5.16229V11.787L14.5159 8.47604L8.8 5.16229Z" fill="white"/>
</svg>
